<?xml version="1.0" encoding="UTF-8"?>
<svg width="16px" height="10px" viewBox="0 0 16 10" version="1.1" xmlns="http://www.w3.org/2000/svg" xmlns:xlink="http://www.w3.org/1999/xlink">
    <!-- Generator: Sketch 60 (88103) - https://sketch.com -->
    <title>bicycle</title>
    <desc>Created with Sketch.</desc>
    <defs>
        <path d="M12.8127241,3.19794165 C12.4033993,3.19634269 12.0119745,3.27176855 11.6518247,3.41017839 L9.70982569,0.283390381 C9.60037381,0.107171559 9.40756687,0 9.20002596,0 L7.60002681,0 C7.37910193,0 7.20002702,0.178958415 7.20002702,0.399739583 L7.20002702,0.799479167 C7.20002702,1.02026034 7.37910193,1.19921875 7.60002681,1.19921875 L8.86625114,1.19921875 L9.23865094,1.79882813 L6.40005245,1.79882813 L6.40005245,1.39908854 C6.40005245,1.17830737 6.22097754,0.999348958 6.00005266,0.999348958 L3.81357882,0.999348958 C3.477554,0.999348958 3.19415415,1.27414494 3.20017914,1.60987622 C3.20597914,1.93576392 3.472079,2.19856771 3.80005383,2.19856771 L5.01820318,2.19856771 L4.28277857,3.38579427 C3.94695375,3.26512288 3.58517894,3.19884106 3.20797914,3.19791667 C1.45235507,3.19366943 0.0103058345,4.62228874 0,6.37674577 C-0.0103191546,8.15166447 1.42638008,9.59375 3.20005414,9.59375 C4.69110335,9.59375 5.94400269,8.57458895 6.2992275,7.1953125 L7.60005181,7.1953125 C7.80783608,7.19531198 8.0008291,7.08787668 8.11020154,6.91132251 L10.2592504,3.44200765 L10.6327002,4.04329093 C9.99632554,4.62910929 9.59807575,5.46938688 9.60002575,6.40267887 C9.60365075,8.12238354 11.0475,9.57688599 12.7682491,9.59357511 C14.5333981,9.61068896 15.9727724,8.19940837 15.9996224,6.44572583 C16.0267723,4.67335547 14.5864731,3.20483716 12.8127241,3.19794165 L12.8127241,3.19794165 Z M4.66875337,5.04101595 C4.91192824,5.30406958 5.08557814,5.63215584 5.15980311,5.99609375 L4.07715368,5.99609375 L4.66875337,5.04101595 Z M3.2000552,8.39453125 C2.09725473,8.39453125 1.2000552,7.49791536 1.2000552,6.39583333 C1.2000552,5.2937513 2.09725473,4.39713542 3.2000552,4.39713542 C3.34677907,4.39713542 3.48970399,4.41344979 3.62752892,4.44358016 L2.48990452,6.28010872 C2.24287965,6.67882397 2.5303295,7.1953125 3.00005425,7.1953125 L5.03255317,7.1953125 C4.72330334,7.90047811 4.01850371,8.39453125 3.2000552,8.39453125 Z M7.26580199,5.99609375 L6.37520246,5.99609375 C6.27620251,5.20271061 5.88630272,4.49971859 5.31562802,3.99674626 L5.9342777,2.99804688 L9.12295101,2.99804688 L7.26580199,5.99609375 Z M12.6922241,8.39168311 C11.6663247,8.33759334 10.8410001,7.49996403 10.8015501,6.47405737 C10.7812501,5.94637614 10.967375,5.46176685 11.2849249,5.09338184 L12.3957493,6.8818667 C12.5122492,7.0694445 12.7588491,7.12710693 12.946549,7.01068278 L13.2863988,6.7998951 C13.4740987,6.68347095 13.5318237,6.43703149 13.4152987,6.24945369 L12.3035993,4.45954476 C12.465812,4.41803786 12.6326035,4.39707869 12.8000438,4.39716016 C13.9028485,4.39716016 14.8000438,5.29377629 14.8000438,6.39585832 C14.8000438,7.53361711 13.8437485,8.45241854 12.6922241,8.39168311 L12.6922241,8.39168311 Z" id="path-1" />
    </defs>
    <g id="Page-1" stroke="none" stroke-width="1" fill="none" fill-rule="evenodd">
        <g id="Solid/bicycle">
            <mask id="mask-2" fill="white">
                <use xlink:href="#path-1" />
            </mask>
            <use id="bicycle" fill="#424242" fill-rule="nonzero" xlink:href="#path-1" />
        </g>
    </g>
</svg>