<?xml version="1.0" encoding="UTF-8"?>
<svg width="16px" height="16px" viewBox="0 0 16 16" version="1.1" xmlns="http://www.w3.org/2000/svg" xmlns:xlink="http://www.w3.org/1999/xlink">
    <!-- Generator: Sketch 60 (88103) - https://sketch.com -->
    <title>Mask</title>
    <desc>Created with Sketch.</desc>
    <g id="Page-1" stroke="none" stroke-width="1" fill="none" fill-rule="evenodd">
        <g id="Solid/compass" fill="#424242" fill-rule="nonzero">
            <path d="M16,8 C16,12.4182903 12.4182903,16 8,16 C3.58170968,16 0,12.4182903 0,8 C0,3.58170968 3.58170968,0 8,0 C12.4182903,0 16,3.58170968 16,8 Z M9.65954839,3.64012903 L6.34851613,6.79429032 C6.24088132,6.89681775 6.16504325,7.02816813 6.13006452,7.17264516 L5.05396774,11.617129 C4.87074194,12.373871 5.78870968,12.8854516 6.34041935,12.3598387 L9.6513871,9.20567742 C9.75903203,9.10315796 9.83487194,8.9718044 9.86983871,8.82732258 L10.9459355,4.38283871 C11.1271613,3.63451613 10.2171935,3.10887097 9.65954839,3.64012903 L9.65954839,3.64012903 Z M8,6.96774194 C7.42990323,6.96774194 6.96774194,7.42990323 6.96774194,8 C6.96774194,8.57009677 7.42990323,9.03225806 8,9.03225806 C8.57009677,9.03225806 9.03225806,8.57009677 9.03225806,8 C9.03225806,7.42990323 8.57009677,6.96774194 8,6.96774194 Z" id="Mask" />
        </g>
    </g>
</svg>